# xmcd CD database file
# Copyright (C) 1996 Ti Kan
#
# Track frame offsets:
#  150
#  17425
#  34172
#  48752
#  65932
#
# Disc length: 1080 seconds
#
# Revision: 1
# Processed by: cddbd v1.4b41PL1 Copyright (c) Steve Scherf et al.
# Submitted via: CDWizzard Release:4.15
#
DISCID=3a043605
DTITLE=Hunters and Collectors - Holly Grail
DYEAR=1900
DGENRE=
TTITLE0=Holly Grail
TTITLE1=True Tears of Joy
TTITLE2=Where Do You Go
TTITLE3=When The River Runs Dry
TTITLE4=Holy Grail 
EXTD=
EXTT0=
EXTT1=
EXTT2=
EXTT3=
EXTT4=
PLAYORDER=
